<svg xmlns="http://www.w3.org/2000/svg" width="41" height="41" viewBox="0 0 41 41">
  <g id="Group_1" data-name="Group 1" transform="translate(0.311 0.072)">
    <rect id="Rectangle_121" data-name="Rectangle 121" width="41" height="41" transform="translate(-0.311 -0.072)" fill="#9edbd7"/>
    <g id="Group_381" data-name="Group 381" transform="translate(1.935 5.471)">
      <path id="Path_4" data-name="Path 4" d="M34.773,4.3c-.745-1.462-1.731-2.359-3.33-1.045a3.773,3.773,0,0,1-4.145.611,5.1,5.1,0,0,0-5.285.742,2.53,2.53,0,0,1-3.219.352c-1.611-.825-3.146-1.6-4.935-.5-.529.325-.9,0-1.321-.345C10.013,2.022,7.163,1.554,5.22,2.861c-1.671,1.123-3.136,5.791-2.232,7.86a3.369,3.369,0,0,1-.461,3.524C.343,16.779-.566,19.485.377,22.762-.782,25.492.932,25.543,2.821,25.3c2.5-.317,3.99.986,5.081,2.995,2.142,3.957,2.15,4.015,6.3,2.955a13.377,13.377,0,0,1,1.963-.212c1.442-.156,2.592-.914,2.744-2.235.237-2.026,1.581-3.169,2.892-4.283,1.045-.884,2.487-1.76,3.637.018.815,1.266,1.307.558,1.817-.2,1.51-2.248,2.169-4.923,3.934-7.1,1.852-2.281,1.656-5.92,4.915-7.432a1.8,1.8,0,0,0,.287-2.51C35.375,6.442,35.284,5.3,34.773,4.3Z" transform="translate(0 -2.131)" fill="#121111"/>
      <g id="Group_379" data-name="Group 379" transform="translate(13.799 14.851)">
        <ellipse id="Ellipse_2" data-name="Ellipse 2" cx="2.041" cy="2.069" rx="2.041" ry="2.069" transform="translate(0)" fill="#d12e2e"/>
        <path id="Polygon_1" data-name="Polygon 1" d="M1.946,0,3.893,6.256H0Z" transform="translate(3.988 8.95) rotate(180)" fill="#d12e2e"/>
        <ellipse id="Ellipse_3" data-name="Ellipse 3" cx="0.902" cy="1.021" rx="0.902" ry="1.021" transform="translate(1.139 1.272)"/>
      </g>
    </g>
  </g>
</svg>
